<?xml version="1.0" encoding="utf-8"?>
<!-- Generator: Adobe Illustrator 17.0.0, SVG Export Plug-In . SVG Version: 6.00 Build 0)  -->
<!DOCTYPE svg PUBLIC "-//W3C//DTD SVG 1.1//EN" "http://www.w3.org/Graphics/SVG/1.1/DTD/svg11.dtd">
<svg version="1.1" id="レイヤー_1" xmlns="http://www.w3.org/2000/svg" xmlns:xlink="http://www.w3.org/1999/xlink" x="0px"
	 y="0px" width="566.797px" height="134.085px" viewBox="0 0 566.797 134.085" enable-background="new 0 0 566.797 134.085"
	 xml:space="preserve">
<g>
	<path fill="#646262" d="M104.566,107.764c1.844,0,3.417,0.668,4.729,1.971c1.311,1.319,1.971,2.893,1.971,4.737
		s-0.644,3.417-1.923,4.705c-12.461,9.934-26.512,14.909-42.152,14.909c-18.493,0-34.292-6.549-47.397-19.646
		C6.696,101.327,0.148,85.544,0.148,67.043c0-18.485,6.549-34.284,19.646-47.397C32.898,6.549,48.697,0,67.19,0
		c15.974,0,30.191,5.118,42.653,15.338c1.287,1.335,1.923,2.925,1.923,4.768c0,1.844-0.652,3.433-1.963,4.737
		c-1.319,1.319-2.893,1.971-4.737,1.971c-1.844,0-3.441-0.668-4.776-2.003c-9.441-7.598-20.48-11.396-33.1-11.396
		c-14.806,0-27.45,5.229-37.924,15.704S13.555,52.245,13.555,67.043c0,14.814,5.237,27.45,15.712,37.924
		s23.118,15.704,37.924,15.704c12.787,0,23.961-3.91,33.513-11.73C101.824,108.162,103.112,107.764,104.566,107.764z"/>
	<path fill="#646262" d="M218.029,87.149c0,12.97-4.586,24.032-13.741,33.188c-9.163,9.171-20.226,13.749-33.188,13.749
		s-24.024-4.578-33.188-13.749c-9.163-9.155-13.741-20.218-13.741-33.188c0-12.954,4.578-24.016,13.741-33.172
		c9.163-9.171,20.226-13.749,33.188-13.749s24.024,4.578,33.188,13.749C213.443,63.133,218.029,74.195,218.029,87.149z
		 M171.1,53.628c-9.274,0-17.182,3.274-23.714,9.807c-6.541,6.549-9.807,14.448-9.807,23.715c0,9.282,3.266,17.182,9.807,23.73
		c6.533,6.533,14.44,9.791,23.714,9.791c9.274,0,17.174-3.258,23.715-9.791c6.533-6.549,9.807-14.448,9.807-23.73
		c0-9.266-3.274-17.166-9.807-23.715C188.274,56.902,180.375,53.628,171.1,53.628z"/>
	<path fill="#646262" d="M231.443,46.936c0-1.844,0.652-3.433,1.963-4.737c1.311-1.319,2.893-1.971,4.737-1.971
		s3.425,0.652,4.737,1.971c1.311,1.303,1.971,2.893,1.971,4.737v5.436c8.376-8.09,18.438-12.143,30.168-12.143
		c12.008,0,22.276,4.26,30.795,12.779c8.519,8.519,12.779,18.787,12.779,30.803v43.567c0,1.844-0.652,3.433-1.971,4.737
		c-1.311,1.319-2.885,1.971-4.729,1.971s-3.425-0.652-4.737-1.971c-1.311-1.303-1.971-2.893-1.971-4.737V83.811
		c0-8.329-2.948-15.434-8.837-21.33c-5.897-5.897-13.01-8.853-21.33-8.853c-8.329,0-15.434,2.956-21.33,8.853
		c-5.897,5.897-8.837,13.002-8.837,21.33v43.567c0,1.844-0.66,3.433-1.971,4.737c-1.311,1.319-2.893,1.971-4.737,1.971
		s-3.425-0.652-4.737-1.971c-1.311-1.303-1.963-2.893-1.963-4.737V46.936z"/>
	<path fill="#646262" d="M380.358,132.242c-1.232,1.224-2.821,1.844-4.776,1.844s-3.552-0.636-4.776-1.923
		c-0.389-0.334-0.755-0.874-1.089-1.589l-37.209-81.046c-0.334-0.779-0.501-1.653-0.501-2.591c0-1.844,0.652-3.433,1.963-4.737
		c1.311-1.319,2.893-1.971,4.737-1.971s3.441,0.636,4.776,1.923c0.445,0.445,0.866,1.033,1.256,1.764l30.843,67.377l30.835-67.377
		c0.397-0.731,0.842-1.319,1.343-1.764c1.287-1.287,2.853-1.923,4.697-1.923s3.417,0.652,4.729,1.971
		c1.319,1.303,1.971,2.893,1.971,4.737c0,0.938-0.167,1.812-0.501,2.591l-37.209,81.046
		C381.113,131.288,380.748,131.844,380.358,132.242z"/>
	<path fill="#646262" d="M542.013,119.002c-12.064,10.061-26.202,15.084-42.398,15.084c-18.493,0-34.292-6.549-47.397-19.646
		c-13.097-13.113-19.646-28.896-19.646-47.397c0-18.485,6.549-34.284,19.646-47.397C465.322,6.549,481.121,0,499.614,0
		c18.485,0,34.284,6.549,47.389,19.646c13.097,13.113,19.646,28.912,19.646,47.397c0,16.196-5.023,30.342-15.084,42.406l13.24,13.24
		c1.232,1.335,1.844,2.909,1.844,4.689c0,1.844-0.652,3.433-1.963,4.737c-1.319,1.319-2.893,1.971-4.737,1.971
		c-1.844,0-3.465-0.668-4.864-2.019L542.013,119.002z M532.46,109.449l-14.162-14.162c-1.287-1.351-1.923-2.94-1.923-4.784
		c0-1.844,0.652-3.417,1.963-4.737c1.311-1.303,2.893-1.955,4.737-1.955s3.433,0.636,4.776,1.923l14.162,14.162
		c7.486-9.394,11.229-20.345,11.229-32.854c0-14.798-5.237-27.45-15.712-37.924s-23.118-15.704-37.916-15.704
		c-14.806,0-27.45,5.229-37.924,15.704c-10.474,10.474-15.712,23.126-15.712,37.924c0,14.814,5.237,27.45,15.712,37.924
		c10.474,10.474,23.118,15.704,37.924,15.704C512.123,120.671,523.075,116.935,532.46,109.449z"/>
</g>
</svg>
