<?xml version="1.0" encoding="utf-8"?>
<!-- Generator: Adobe Illustrator 17.0.0, SVG Export Plug-In . SVG Version: 6.00 Build 0)  -->
<!DOCTYPE svg PUBLIC "-//W3C//DTD SVG 1.1//EN" "http://www.w3.org/Graphics/SVG/1.1/DTD/svg11.dtd">
<svg version="1.1" id="レイヤー_1" xmlns="http://www.w3.org/2000/svg" xmlns:xlink="http://www.w3.org/1999/xlink" x="0px"
	 y="0px" width="566.797px" height="727.421px" viewBox="0 0 566.797 727.421" enable-background="new 0 0 566.797 727.421"
	 xml:space="preserve">
<g>
	<g>
		<path fill="#646262" d="M104.714,701.1c1.844,0,3.417,0.668,4.729,1.971c1.311,1.319,1.971,2.893,1.971,4.737
			s-0.644,3.417-1.923,4.705c-12.461,9.934-26.512,14.909-42.152,14.909c-18.493,0-34.292-6.548-47.397-19.646
			C6.844,694.663,0.295,678.88,0.295,660.378c0-18.485,6.549-34.284,19.646-47.397c13.105-13.097,28.904-19.646,47.397-19.646
			c15.974,0,30.191,5.118,42.653,15.338c1.287,1.335,1.923,2.925,1.923,4.768s-0.652,3.433-1.963,4.737
			c-1.319,1.319-2.893,1.971-4.737,1.971c-1.844,0-3.441-0.668-4.776-2.003c-9.441-7.598-20.48-11.396-33.1-11.396
			c-14.806,0-27.45,5.229-37.924,15.704s-15.712,23.126-15.712,37.924c0,14.814,5.237,27.45,15.712,37.924
			s23.118,15.704,37.924,15.704c12.787,0,23.961-3.91,33.513-11.73C101.972,701.497,103.259,701.1,104.714,701.1z"/>
		<path fill="#646262" d="M218.176,680.485c0,12.97-4.586,24.032-13.741,33.188c-9.163,9.171-20.226,13.749-33.188,13.749
			s-24.024-4.578-33.188-13.749c-9.163-9.155-13.741-20.218-13.741-33.188c0-12.954,4.578-24.016,13.741-33.172
			c9.163-9.171,20.226-13.749,33.188-13.749s24.024,4.578,33.188,13.749C213.591,656.468,218.176,667.531,218.176,680.485z
			 M171.248,646.964c-9.274,0-17.182,3.274-23.714,9.807c-6.541,6.549-9.807,14.448-9.807,23.714c0,9.282,3.266,17.182,9.807,23.73
			c6.533,6.533,14.44,9.791,23.714,9.791c9.274,0,17.174-3.258,23.715-9.791c6.533-6.549,9.807-14.448,9.807-23.73
			c0-9.266-3.274-17.166-9.807-23.714C188.422,650.238,180.522,646.964,171.248,646.964z"/>
		<path fill="#646262" d="M231.591,640.272c0-1.844,0.652-3.433,1.963-4.737c1.311-1.319,2.893-1.971,4.737-1.971
			c1.844,0,3.425,0.652,4.737,1.971c1.311,1.303,1.971,2.893,1.971,4.737v5.436c8.376-8.09,18.438-12.143,30.168-12.143
			c12.008,0,22.276,4.26,30.795,12.779c8.519,8.519,12.779,18.787,12.779,30.803v43.567c0,1.844-0.652,3.433-1.971,4.737
			c-1.311,1.319-2.885,1.971-4.729,1.971c-1.844,0-3.425-0.652-4.737-1.971c-1.311-1.303-1.971-2.893-1.971-4.737v-43.567
			c0-8.329-2.948-15.433-8.837-21.33c-5.897-5.897-13.01-8.853-21.33-8.853c-8.329,0-15.434,2.956-21.33,8.853
			c-5.897,5.897-8.837,13.002-8.837,21.33v43.567c0,1.844-0.66,3.433-1.971,4.737c-1.311,1.319-2.893,1.971-4.737,1.971
			c-1.844,0-3.425-0.652-4.737-1.971c-1.311-1.303-1.963-2.893-1.963-4.737V640.272z"/>
		<path fill="#646262" d="M380.506,725.577c-1.232,1.224-2.821,1.844-4.776,1.844s-3.552-0.636-4.776-1.923
			c-0.389-0.334-0.755-0.874-1.089-1.589l-37.209-81.046c-0.334-0.779-0.501-1.653-0.501-2.591c0-1.844,0.652-3.433,1.963-4.737
			c1.311-1.319,2.893-1.971,4.737-1.971s3.441,0.636,4.776,1.923c0.445,0.445,0.866,1.033,1.256,1.764l30.843,67.377l30.835-67.377
			c0.397-0.731,0.842-1.319,1.343-1.764c1.287-1.287,2.853-1.923,4.697-1.923s3.417,0.652,4.729,1.971
			c1.319,1.303,1.971,2.893,1.971,4.737c0,0.938-0.167,1.812-0.501,2.591l-37.209,81.046
			C381.261,724.624,380.896,725.18,380.506,725.577z"/>
		<path fill="#646262" d="M542.161,712.337c-12.064,10.061-26.202,15.084-42.398,15.084c-18.493,0-34.292-6.548-47.397-19.646
			c-13.097-13.113-19.646-28.896-19.646-47.397c0-18.485,6.549-34.284,19.646-47.397c13.105-13.097,28.904-19.646,47.397-19.646
			c18.485,0,34.284,6.549,47.389,19.646c13.097,13.113,19.646,28.912,19.646,47.397c0,16.196-5.023,30.342-15.084,42.406
			l13.24,13.24c1.232,1.335,1.844,2.909,1.844,4.689c0,1.844-0.652,3.433-1.963,4.737c-1.319,1.319-2.893,1.971-4.737,1.971
			c-1.844,0-3.465-0.668-4.864-2.019L542.161,712.337z M532.608,702.785l-14.162-14.162c-1.287-1.351-1.923-2.94-1.923-4.784
			s0.652-3.417,1.963-4.737c1.311-1.303,2.893-1.955,4.737-1.955s3.433,0.636,4.776,1.923l14.162,14.162
			c7.486-9.394,11.229-20.345,11.229-32.854c0-14.798-5.237-27.45-15.712-37.924s-23.118-15.704-37.916-15.704
			c-14.806,0-27.45,5.229-37.924,15.704c-10.474,10.474-15.712,23.126-15.712,37.924c0,14.814,5.237,27.45,15.712,37.924
			c10.474,10.474,23.118,15.704,37.924,15.704C512.271,714.006,523.222,710.271,532.608,702.785z"/>
	</g>
	<circle fill="#646262" cx="283.772" cy="283.773" r="128.966"/>
	<path fill="#A1CC3A" d="M555.239,365.308l-168.294,97.165c-98.694,56.981-224.892,23.166-281.873-75.528
		S81.906,162.053,180.6,105.072S405.492,81.906,462.473,180.6c24.416,42.29,32.046,89.611,25.159,134.391l79.297-45.782
		c-2.198-43.447-14.199-87.037-37.444-127.299C451.137,6.207,277.613-40.289,141.91,38.059S-40.289,289.932,38.059,425.635
		s251.873,182.199,387.576,103.851C490.838,491.842,535.178,432.144,555.239,365.308z"/>
</g>
</svg>
